# xmcd CD database file
#
# Track frame offsets:
#	150
#	12952
#	27952
#	42644
#	55209
#	66412
#	77287
#	90062
#	104023
#	114299
#	125743
#	135586
#	149608
#	161740
#
# Disc length: 2354 seconds
#
# Revision: 0
# Processed by: cddbd v1.5.1PL0 Copyright (c) Steve Scherf et al.
# Submitted via: CDex 1.51
#
DISCID=bd09300e
DTITLE=Charles Trenet - Cocktail Hour [CDTwo)
DYEAR=2001
DGENRE=Jazz
TTITLE0=La Romance De Paris
TTITLE1=Bonsoir Jolie Madame
TTITLE2=Douce France
TTITLE3=N'y Pensez-Pas Trop
TTITLE4=Les Enfants S'Ennuient Le Dimanche
TTITLE5=Tout Me Sourit
TTITLE6=Marie, Marie
TTITLE7=Quand J'Etais Petit
TTITLE8=Biguine À Bango
TTITLE9=Hop! Hop!
TTITLE10=La Vieille
TTITLE11=Les Oiseaux De Paris
TTITLE12=Annie-Anna
TTITLE13=La Mer
EXTD=YEAR: 2001
EXTT0=
EXTT1=
EXTT2=
EXTT3=
EXTT4=
EXTT5=
EXTT6=
EXTT7=
EXTT8=
EXTT9=
EXTT10=
EXTT11=
EXTT12=
EXTT13=
PLAYORDER=
